<svg width="58" height="35" viewBox="0 0 58 35" fill="none" xmlns="http://www.w3.org/2000/svg">
<path opacity="0.7" d="M29.2692 2.31113L20.7142 9.24004C19.2913 10.389 19.0173 12.457 20.0955 13.933C21.2356 15.5061 23.4539 15.8154 24.9829 14.6223L33.7589 7.79946C34.3775 7.32222 35.2613 7.42827 35.7474 8.04693C36.2335 8.66558 36.1186 9.54937 35.5 10.0355L33.6528 11.4672L49.3136 25.8906H53.0078C55.3499 25.8906 57.25 23.9905 57.25 21.6484V10.3359C57.25 7.9939 55.3499 6.09375 53.0078 6.09375H45.8756L45.531 5.8728L39.1146 1.76318C37.7625 0.89707 36.1805 0.4375 34.572 0.4375C32.6453 0.4375 30.7717 1.10034 29.2692 2.31113ZM31.2843 13.3055L26.7151 16.8583C23.9312 19.0324 19.8922 18.4668 17.8065 15.6033C15.8445 12.9078 16.3394 9.14282 18.9289 7.04824L26.282 1.10034C25.2568 0.667285 24.1521 0.446338 23.0297 0.446338C21.3682 0.4375 19.7508 0.932422 18.3633 1.85156L12 6.09375H4.92969C2.58765 6.09375 0.6875 7.9939 0.6875 10.3359V21.6484C0.6875 23.9905 2.58765 25.8906 4.92969 25.8906H14.4923L22.5701 33.2614C24.3023 34.8434 26.9802 34.7197 28.5622 32.9875C29.0483 32.4483 29.3753 31.8209 29.5432 31.1668L31.0457 32.5456C32.769 34.1275 35.4558 34.0126 37.0377 32.2893C37.4354 31.8562 37.7271 31.3524 37.9127 30.831C39.6272 31.9799 41.9604 31.7413 43.401 30.1682C44.983 28.4448 44.8681 25.7581 43.1447 24.1761L31.2843 13.3055Z" fill="#222222"/>
</svg>
