<svg width="57" height="61" viewBox="0 0 57 61" fill="none" xmlns="http://www.w3.org/2000/svg">
<g opacity="0.7">
<mask id="mask0_0_1" style="mask-type:luminance" maskUnits="userSpaceOnUse" x="0" y="0" width="45" height="61">
<path d="M0.3125 0.944336H44.4996V60.9305H0.3125V0.944336Z" fill="white"/>
</mask>
<g mask="url(#mask0_0_1)">
<path fill-rule="evenodd" clip-rule="evenodd" d="M13.5964 1.03809C13.2907 1.03809 13.0008 1.16996 12.8008 1.39893L0.537822 15.5068C0.371165 15.701 0.278417 15.9473 0.281316 16.2038V59.7519C0.281316 60.3272 0.749403 60.7996 1.32908 60.7996L43.3062 60.8344C43.8859 60.8344 44.3583 60.362 44.3583 59.7823V43.2514C44.3728 42.6602 43.8989 42.1718 43.3062 42.1718C42.715 42.1718 42.2396 42.6602 42.2512 43.2514V58.7302L2.38554 58.694V17.2559H15.0819C15.6615 17.2559 16.1325 16.7849 16.1325 16.2038V6.54934C16.1456 5.95662 15.6572 5.4726 15.0659 5.48129C14.4848 5.48854 14.0225 5.96822 14.0283 6.54934V15.1503H3.63763L14.0718 3.14375H42.2527V20.4441C42.2396 21.0369 42.7164 21.5238 43.3077 21.5238C43.8989 21.5238 44.3743 21.0369 44.3583 20.4441V2.09164C44.3583 1.51052 43.8873 1.03809 43.3077 1.03809H13.5964Z" fill="#222222"/>
</g>
</g>
<path opacity="0.7" d="M12.5348 20.1856C11.9465 20.1784 11.4668 20.6494 11.4668 21.2377C11.4668 21.8261 11.9465 22.2985 12.5348 22.2898H32.1076C32.6916 22.2985 33.1742 21.8261 33.1742 21.2377C33.1742 20.6494 32.6916 20.1784 32.1076 20.1856H12.5348Z" fill="#222222"/>
<path opacity="0.7" d="M8.37274 25.7677C7.78292 25.7604 7.30469 26.2328 7.30469 26.8212C7.30469 27.4081 7.78292 27.8806 8.37274 27.8733H12.8493C13.4362 27.8806 13.9159 27.4081 13.9159 26.8212C13.9159 26.2328 13.4362 25.7604 12.8493 25.7677H8.37274Z" fill="#222222"/>
<path opacity="0.7" d="M17.0979 25.7677C16.5109 25.7604 16.0312 26.2328 16.0312 26.8212C16.0312 27.4081 16.5109 27.8806 17.0979 27.8733H36.2575C36.8459 27.8806 37.3256 27.4081 37.3256 26.8212C37.3256 26.2328 36.8459 25.7604 36.2575 25.7677H17.0979Z" fill="#222222"/>
<path opacity="0.7" d="M8.37274 31.3516C7.78292 31.3444 7.30469 31.8168 7.30469 32.4038C7.30469 32.9921 7.78292 33.4646 8.37274 33.4573H30.4395C31.0264 33.4646 31.5061 32.9921 31.5061 32.4038C31.5061 31.8168 31.0264 31.3444 30.4395 31.3516H8.37274Z" fill="#222222"/>
<path opacity="0.7" d="M32.613 40.0608L35.2882 42.7389L33.5289 46.043L29.8986 46.9459L32.9724 43.8693C33.6651 43.1997 33.1651 42.0274 32.2043 42.0607C31.929 42.0694 31.6696 42.181 31.4797 42.3795L28.4176 45.4518L29.3161 41.8259L32.613 40.0608ZM49.4728 22.9372L52.3523 25.8254C47.9106 31.9657 43.6964 36.6277 36.9895 41.4651L33.8883 38.3537C38.7126 31.6207 43.2906 27.2949 49.4728 22.9372ZM53.4537 20.5663C53.7899 20.562 54.1102 20.6765 54.4435 20.9228C54.8957 21.2576 55.058 21.975 54.3812 22.9532C54.1146 23.3401 53.8566 23.6995 53.59 24.0792L51.2466 21.73C51.622 21.475 51.977 21.2243 52.3683 20.9678C52.7625 20.7055 53.119 20.5736 53.4537 20.5663ZM53.7711 18.4882C52.9364 18.4346 52.035 18.6578 51.2046 19.207C42.9993 24.6328 37.3489 29.7064 31.3478 38.3624L27.9118 40.1767C27.6481 40.3202 27.4597 40.568 27.3858 40.8579L25.4641 48.6197C25.2714 49.3863 25.967 50.0877 26.7322 49.8979L34.4911 47.9705C34.781 47.9009 35.0288 47.7082 35.1679 47.4401L36.9852 43.9997C45.6412 37.9899 50.5394 32.2251 56.113 24.1487C57.2448 22.5083 57.0564 20.5519 55.9347 19.4331C55.3754 18.8708 54.6058 18.5418 53.7711 18.4882Z" fill="#222222"/>
<path opacity="0.7" d="M12.7962 41.3775C11.8687 41.992 10.9137 42.9673 9.96304 44.1324C8.06026 46.4685 6.22849 49.4335 5.87633 51.8711C5.61693 53.6434 6.54151 54.9462 7.48058 55.4694C8.41966 55.9925 9.35583 55.9839 9.35583 55.9839C10.7601 56.0114 10.7978 53.9057 9.39496 53.8796C9.39496 53.8796 8.89644 53.8492 8.50081 53.6275C8.10373 53.4072 7.8023 53.2594 7.95737 52.1725C8.18054 50.6479 9.86015 47.5989 11.5977 45.4671C12.1629 44.7744 12.7266 44.1483 13.2382 43.7063C13.7237 43.2933 14.1309 43.2107 14.228 43.9542C14.27 44.3063 14.2439 44.728 14.1773 45.2309C14.0222 46.4265 13.6817 47.8278 13.3266 49.1741C12.9716 50.5204 12.6006 51.8087 12.3759 52.858C12.2643 53.384 12.1759 53.8492 12.1673 54.297C12.1644 54.5231 12.1759 54.7419 12.2484 55.0057C12.3267 55.2651 12.4962 55.6056 12.8527 55.8259C13.3672 56.1476 14.0353 56.2143 14.5845 56.0592C15.1337 55.9041 15.5859 55.5984 16.0293 55.2114C16.5829 54.7347 17.1655 53.868 17.735 53.1188C17.7307 53.7434 17.7423 54.3173 17.7307 54.91C17.7234 55.2853 17.9118 55.6346 18.2307 55.8259C18.6929 56.1172 19.277 56.2404 19.8233 56.1636C20.3682 56.0824 20.8624 55.8418 21.329 55.51C22.2666 54.8448 23.1637 53.7912 24.1564 52.3058C24.9375 51.1407 23.1883 49.9697 22.4087 51.1334C21.6131 52.3218 20.8769 53.1261 20.3552 53.6072C19.8914 54.0275 19.8421 53.7767 19.8479 53.4405C19.861 52.8087 19.8871 52.1739 19.8262 51.6059C19.7407 50.7624 19.4422 50.2132 18.8625 49.919C18.0944 49.5292 17.4452 50.0886 17.0264 50.6581C16.1525 51.8377 15.4714 52.8246 14.8932 53.3942C14.5367 53.7507 14.3671 53.5985 14.5019 52.9884C14.7004 52.0899 15.0395 50.945 15.3598 49.7176C15.7236 48.3437 16.0844 46.8786 16.2612 45.5077C16.4395 44.1382 16.4974 42.8571 15.9598 41.7383C14.9845 40.5065 13.9222 40.7283 12.7962 41.3775Z" fill="#222222"/>
</svg>
