<svg width="57" height="57" viewBox="0 0 57 57" fill="none" xmlns="http://www.w3.org/2000/svg">
<g opacity="0.7">
<mask id="mask0_476_477" style="mask-type:luminance" maskUnits="userSpaceOnUse" x="0" y="0" width="57" height="57">
<path d="M0.3125 0.4375H56.875V56.999H0.3125V0.4375Z" fill="white"/>
</mask>
<g mask="url(#mask0_476_477)">
<path d="M55.9321 5.1512H12.5677V1.38044C12.5677 1.25478 12.5444 1.13496 12.4966 1.01904C12.4479 0.904097 12.3807 0.801816 12.2921 0.713172C12.2034 0.625503 12.1011 0.557315 11.9862 0.509584C11.8703 0.461853 11.7505 0.4375 11.6248 0.4375H4.08327C3.95858 0.4375 3.83877 0.461853 3.72285 0.509584C3.6079 0.557315 3.50562 0.625503 3.41698 0.713172C3.32834 0.801816 3.26015 0.904097 3.21242 1.01904C3.16469 1.13496 3.14131 1.25478 3.14131 1.38044V5.1512H1.25544C1.13075 5.1512 1.00996 5.17458 0.895016 5.22231C0.779097 5.27102 0.67779 5.33823 0.589146 5.42688C0.500503 5.51552 0.432315 5.6178 0.384584 5.73275C0.336853 5.84866 0.3125 5.96848 0.3125 6.09414V11.7498C0.3125 11.8745 0.336853 11.9953 0.384584 12.1102C0.432315 12.2261 0.500503 12.3284 0.589146 12.4161C0.67779 12.5047 0.779097 12.5729 0.895016 12.6207C1.00996 12.6684 1.13075 12.6927 1.25544 12.6927H3.14131V56.0571C3.14131 56.1817 3.16469 56.3016 3.21242 56.4175C3.26015 56.5334 3.32834 56.6347 3.41698 56.7234C3.50562 56.812 3.6079 56.8802 3.72285 56.9279C3.83877 56.9756 3.95858 56.999 4.08327 56.999H11.6248C11.7505 56.999 11.8703 56.9756 11.9862 56.9279C12.1011 56.8802 12.2034 56.812 12.2921 56.7234C12.3807 56.6347 12.4479 56.5334 12.4966 56.4175C12.5444 56.3016 12.5677 56.1817 12.5677 56.0571V12.6927H21.0522V14.5776H16.3385C16.2138 14.5776 16.093 14.602 15.9781 14.6497C15.8622 14.6975 15.7609 14.7656 15.6722 14.8543C15.5836 14.9429 15.5154 15.0442 15.4677 15.1602C15.4199 15.2751 15.3965 15.3959 15.3965 15.5206V45.6867C15.3965 45.8124 15.4199 45.9322 15.4677 46.0481C15.5154 46.1631 15.5836 46.2653 15.6722 46.354C15.7609 46.4417 15.8622 46.5098 15.9781 46.5576C16.093 46.6053 16.2138 46.6297 16.3385 46.6297H52.1613C52.286 46.6297 52.4068 46.6053 52.5217 46.5576C52.6376 46.5098 52.7399 46.4417 52.8276 46.354C52.9162 46.2653 52.9844 46.1631 53.0322 46.0481C53.0799 45.9322 53.1042 45.8124 53.1042 45.6867V15.5206C53.1042 15.3959 53.0799 15.2751 53.0322 15.1602C52.9844 15.0442 52.9162 14.9429 52.8276 14.8543C52.7399 14.7656 52.6376 14.6975 52.5217 14.6497C52.4068 14.602 52.286 14.5776 52.1613 14.5776H47.4476V12.6927H55.9321C56.0568 12.6927 56.1775 12.6684 56.2925 12.6207C56.4084 12.5729 56.5107 12.5047 56.5984 12.4161C56.687 12.3284 56.7552 12.2261 56.8029 12.1102C56.8506 11.9953 56.875 11.8745 56.875 11.7498V6.09414C56.875 5.96848 56.8506 5.84866 56.8029 5.73275C56.7552 5.6178 56.687 5.51552 56.5984 5.42688C56.5107 5.33823 56.4084 5.27102 56.2925 5.22231C56.1775 5.17458 56.0568 5.1512 55.9321 5.1512ZM5.0262 2.3224H10.6828V5.1512H5.0262V2.3224ZM10.6828 55.1141H5.0262V12.6927H10.6828V55.1141ZM51.2184 44.7448H17.2814V16.4635H51.2184V44.7448ZM45.5627 14.5776H22.9381V12.6927H45.5627V14.5776ZM54.9891 10.8069H2.19837V7.0361H54.9891V10.8069Z" fill="#222222"/>
</g>
<path d="M26.7078 23.0628H23.879V21.1779H26.7078C26.8325 21.1779 26.9523 21.1535 27.0683 21.1058C27.1842 21.058 27.2855 20.9899 27.3741 20.9012C27.4628 20.8126 27.531 20.7113 27.5787 20.5953C27.6264 20.4804 27.6498 20.3596 27.6498 20.2349C27.6498 20.1102 27.6264 19.9895 27.5787 19.8745C27.531 19.7586 27.4628 19.6563 27.3741 19.5686C27.2855 19.48 27.1842 19.4118 27.0683 19.3641C26.9523 19.3163 26.8325 19.292 26.7078 19.292H22.9371C22.8114 19.292 22.6916 19.3163 22.5757 19.3641C22.4607 19.4118 22.3585 19.48 22.2698 19.5686C22.1821 19.6563 22.114 19.7586 22.0653 19.8745C22.0175 19.9895 21.9941 20.1102 21.9941 20.2349V28.7194C21.9941 28.8441 22.0175 28.9639 22.0653 29.0798C22.114 29.1957 22.1821 29.297 22.2698 29.3857C22.3585 29.4743 22.4607 29.5425 22.5757 29.5903C22.6916 29.638 22.8114 29.6614 22.9371 29.6614C23.0618 29.6614 23.1816 29.638 23.2975 29.5903C23.4124 29.5425 23.5147 29.4743 23.6034 29.3857C23.692 29.297 23.7602 29.1957 23.8079 29.0798C23.8557 28.9639 23.879 28.8441 23.879 28.7194V24.9486H26.7078C26.8325 24.9486 26.9523 24.9243 27.0683 24.8765C27.1842 24.8288 27.2855 24.7606 27.3741 24.672C27.4628 24.5833 27.531 24.482 27.5787 24.3661C27.6264 24.2512 27.6498 24.1304 27.6498 24.0057C27.6498 23.881 27.6264 23.7602 27.5787 23.6453C27.531 23.5294 27.4628 23.4271 27.3741 23.3394C27.2855 23.2508 27.1842 23.1826 27.0683 23.1348C26.9523 23.0871 26.8325 23.0628 26.7078 23.0628Z" fill="#222222"/>
<path d="M38.0212 24.0057C38.0212 23.8508 38.0134 23.6969 37.9978 23.544C37.9832 23.3901 37.9608 23.2371 37.9306 23.0861C37.9004 22.9342 37.8624 22.7851 37.8176 22.6371C37.7728 22.49 37.7211 22.3448 37.6617 22.2016C37.6033 22.0594 37.537 21.9201 37.464 21.7838C37.3919 21.6474 37.312 21.5149 37.2263 21.3873C37.1406 21.2587 37.049 21.135 36.9506 21.0152C36.8532 20.8963 36.749 20.7814 36.6399 20.6723C36.5308 20.5632 36.4168 20.4599 36.298 20.3616C36.1781 20.2642 36.0544 20.1726 35.9259 20.0869C35.7973 20.0011 35.6658 19.9213 35.5294 19.8482C35.393 19.7761 35.2537 19.7099 35.1115 19.6505C34.9683 19.592 34.8232 19.5394 34.6761 19.4946C34.528 19.4498 34.378 19.4128 34.227 19.3826C34.075 19.3524 33.9231 19.33 33.7692 19.3144C33.6153 19.2998 33.4614 19.292 33.3075 19.292C33.1526 19.292 32.9987 19.2998 32.8457 19.3144C32.6918 19.33 32.5389 19.3524 32.3879 19.3826C32.2359 19.4128 32.0869 19.4498 31.9388 19.4946C31.7917 19.5394 31.6466 19.592 31.5034 19.6505C31.3612 19.7099 31.2219 19.7761 31.0855 19.8482C30.9491 19.9213 30.8167 20.0011 30.6891 20.0869C30.5605 20.1726 30.4368 20.2642 30.3169 20.3616C30.1981 20.4599 30.0832 20.5632 29.9741 20.6723C29.865 20.7814 29.7617 20.8963 29.6633 21.0152C29.5659 21.135 29.4743 21.2587 29.3886 21.3873C29.3029 21.5149 29.223 21.6474 29.15 21.7838C29.0779 21.9201 29.0116 22.0594 28.9522 22.2016C28.8938 22.3448 28.8412 22.49 28.7964 22.6371C28.7516 22.7851 28.7145 22.9342 28.6843 23.0861C28.6541 23.2371 28.6317 23.3901 28.6162 23.544C28.6015 23.6969 28.5938 23.8508 28.5938 24.0057C28.5938 24.1596 28.6015 24.3135 28.6162 24.4674C28.6317 24.6213 28.6541 24.7733 28.6843 24.9253C28.7145 25.0762 28.7516 25.2263 28.7964 25.3743C28.8412 25.5214 28.8938 25.6665 28.9522 25.8097C29.0116 25.952 29.0779 26.0913 29.15 26.2276C29.223 26.364 29.3029 26.4955 29.3886 26.6241C29.4743 26.7527 29.5659 26.8764 29.6633 26.9962C29.7617 27.115 29.865 27.229 29.9741 27.3381C30.0832 27.4472 30.1981 27.5514 30.3169 27.6489C30.4368 27.7472 30.5605 27.8388 30.6891 27.9245C30.8167 28.0102 30.9491 28.0901 31.0855 28.1622C31.2219 28.2353 31.3612 28.3015 31.5034 28.36C31.6466 28.4194 31.7917 28.471 31.9388 28.5158C32.0869 28.5606 32.2359 28.5986 32.3879 28.6288C32.5389 28.659 32.6918 28.6814 32.8457 28.696C32.9987 28.7116 33.1526 28.7194 33.3075 28.7194C33.4614 28.7194 33.6153 28.7116 33.7692 28.696C33.9231 28.6814 34.075 28.659 34.227 28.6288C34.378 28.5986 34.528 28.5606 34.6761 28.5158C34.8232 28.471 34.9683 28.4194 35.1115 28.36C35.2537 28.3015 35.393 28.2353 35.5294 28.1622C35.6658 28.0901 35.7973 28.0102 35.9259 27.9245C36.0544 27.8388 36.1781 27.7472 36.298 27.6489C36.4168 27.5514 36.5308 27.4472 36.6399 27.3381C36.749 27.229 36.8532 27.115 36.9506 26.9962C37.049 26.8764 37.1406 26.7527 37.2263 26.6241C37.312 26.4955 37.3919 26.364 37.464 26.2276C37.537 26.0913 37.6033 25.952 37.6617 25.8097C37.7211 25.6665 37.7728 25.5214 37.8176 25.3743C37.8624 25.2263 37.9004 25.0762 37.9306 24.9253C37.9608 24.7733 37.9832 24.6213 37.9978 24.4674C38.0134 24.3135 38.0212 24.1596 38.0212 24.0057ZM33.3075 26.8335C33.1214 26.8335 32.9373 26.816 32.7551 26.779C32.574 26.7429 32.3967 26.6894 32.2252 26.6183C32.0538 26.5471 31.8901 26.4604 31.7362 26.3572C31.5813 26.2539 31.4391 26.137 31.3076 26.0055C31.1761 25.874 31.0592 25.7308 30.956 25.5769C30.8527 25.422 30.766 25.2594 30.6949 25.0879C30.6238 24.9165 30.5702 24.7392 30.5332 24.557C30.4972 24.3749 30.4796 24.1918 30.4796 24.0057C30.4796 23.8196 30.4972 23.6355 30.5332 23.4534C30.5702 23.2722 30.6238 23.0949 30.6949 22.9235C30.766 22.752 30.8527 22.5884 30.956 22.4345C31.0592 22.2796 31.1761 22.1374 31.3076 22.0059C31.4391 21.8743 31.5813 21.7575 31.7362 21.6542C31.8901 21.5509 32.0538 21.4643 32.2252 21.3931C32.3967 21.322 32.574 21.2685 32.7551 21.2314C32.9373 21.1954 33.1214 21.1779 33.3075 21.1779C33.4935 21.1779 33.6766 21.1954 33.8588 21.2314C34.041 21.2685 34.2182 21.322 34.3897 21.3931C34.5611 21.4643 34.7238 21.5509 34.8787 21.6542C35.0326 21.7575 35.1758 21.8743 35.3073 22.0059C35.4388 22.1374 35.5557 22.2796 35.6589 22.4345C35.7622 22.5884 35.8489 22.752 35.92 22.9235C35.9911 23.0949 36.0447 23.2722 36.0807 23.4534C36.1178 23.6355 36.1353 23.8196 36.1353 24.0057C36.1353 24.1918 36.1178 24.3749 36.0807 24.557C36.0447 24.7392 35.9911 24.9165 35.92 25.0879C35.8489 25.2594 35.7622 25.422 35.6589 25.5769C35.5557 25.7308 35.4388 25.874 35.3073 26.0055C35.1758 26.137 35.0326 26.2539 34.8787 26.3572C34.7238 26.4604 34.5611 26.5471 34.3897 26.6183C34.2182 26.6894 34.041 26.7429 33.8588 26.779C33.6766 26.816 33.4935 26.8335 33.3075 26.8335Z" fill="#222222"/>
<path d="M26.7095 35.7886C26.7095 35.5713 26.6881 35.357 26.6462 35.1447C26.6033 34.9323 26.541 34.7258 26.4582 34.5261C26.3754 34.3254 26.2731 34.1355 26.1533 33.9553C26.0325 33.7751 25.8961 33.6085 25.7432 33.4556C25.5893 33.3026 25.4227 33.1653 25.2425 33.0455C25.0623 32.9247 24.8723 32.8234 24.6726 32.7406C24.472 32.6568 24.2655 32.5945 24.0531 32.5526C23.8408 32.5097 23.6265 32.4893 23.4092 32.4893H20.1099C19.9852 32.4893 19.8654 32.5126 19.7495 32.5604C19.6336 32.6081 19.5323 32.6763 19.4436 32.7649C19.355 32.8536 19.2868 32.9559 19.2391 33.0708C19.1913 33.1867 19.168 33.3065 19.168 33.4312V40.9737C19.168 41.0984 19.1913 41.2182 19.2391 41.3341C19.2868 41.4491 19.355 41.5514 19.4436 41.64C19.5323 41.7287 19.6336 41.7959 19.7495 41.8446C19.8654 41.8923 19.9852 41.9157 20.1099 41.9157C20.2356 41.9157 20.3554 41.8923 20.4713 41.8446C20.5863 41.7959 20.6885 41.7287 20.7772 41.64C20.8649 41.5514 20.9331 41.4491 20.9808 41.3341C21.0295 41.2182 21.0529 41.0984 21.0529 40.9737V39.0879H22.9387L25.0126 41.5767C25.0925 41.6731 25.188 41.7501 25.298 41.8085C25.4091 41.867 25.5269 41.9021 25.6516 41.9137C25.7763 41.9254 25.899 41.9128 26.0179 41.8758C26.1377 41.8387 26.2458 41.7803 26.3423 41.7004C26.4387 41.6205 26.5157 41.5241 26.5741 41.414C26.6326 41.303 26.6676 41.1851 26.6793 41.0604C26.69 40.9357 26.6774 40.813 26.6403 40.6942C26.6033 40.5743 26.5439 40.4662 26.464 40.3698L25.0311 38.6446C25.2844 38.5014 25.5153 38.3281 25.7227 38.1245C25.9302 37.9209 26.1075 37.6929 26.2546 37.4426C26.4017 37.1913 26.5137 36.9263 26.5916 36.6458C26.6686 36.3652 26.7076 36.0788 26.7095 35.7886ZM23.4092 37.202H21.0529V34.3742H23.4092C23.5027 34.3742 23.5943 34.3839 23.6859 34.4014C23.7765 34.4199 23.8651 34.4462 23.9508 34.4823C24.0366 34.5173 24.1184 34.5612 24.1953 34.6128C24.2723 34.6644 24.3444 34.7229 24.4096 34.7882C24.4749 34.8544 24.5334 34.9255 24.585 35.0025C24.6366 35.0804 24.6804 35.1612 24.7165 35.247C24.7516 35.3327 24.7788 35.4213 24.7964 35.5129C24.8149 35.6035 24.8236 35.696 24.8236 35.7886C24.8236 35.8811 24.8149 35.9736 24.7964 36.0642C24.7788 36.1558 24.7516 36.2435 24.7165 36.3292C24.6804 36.4149 24.6366 36.4967 24.585 36.5737C24.5334 36.6516 24.4749 36.7227 24.4096 36.788C24.3444 36.8542 24.2723 36.9127 24.1953 36.9643C24.1184 37.0159 24.0366 37.0598 23.9508 37.0948C23.8651 37.1299 23.7765 37.1572 23.6859 37.1757C23.5943 37.1932 23.5027 37.202 23.4092 37.202Z" fill="#222222"/>
<path d="M32.3641 34.3742C32.4888 34.3742 32.6096 34.3508 32.7245 34.303C32.8404 34.2543 32.9427 34.1871 33.0304 34.0985C33.119 34.0098 33.1872 33.9076 33.2349 33.7926C33.2827 33.6767 33.307 33.5569 33.307 33.4312C33.307 33.3065 33.2827 33.1867 33.2349 33.0708C33.1872 32.9559 33.119 32.8536 33.0304 32.7649C32.9427 32.6763 32.8404 32.6081 32.7245 32.5604C32.6096 32.5126 32.4888 32.4893 32.3641 32.4893H28.5933C28.4686 32.4893 28.3479 32.5126 28.2329 32.5604C28.117 32.6081 28.0157 32.6763 27.927 32.7649C27.8384 32.8536 27.7702 32.9559 27.7225 33.0708C27.6747 33.1867 27.6504 33.3065 27.6504 33.4312V40.9737C27.6504 41.0984 27.6747 41.2182 27.7225 41.3341C27.7702 41.4491 27.8384 41.5514 27.927 41.64C28.0157 41.7287 28.117 41.7959 28.2329 41.8446C28.3479 41.8923 28.4686 41.9157 28.5933 41.9157H32.3641C32.4888 41.9157 32.6096 41.8923 32.7245 41.8446C32.8404 41.7959 32.9427 41.7287 33.0304 41.64C33.119 41.5514 33.1872 41.4491 33.2349 41.3341C33.2827 41.2182 33.307 41.0984 33.307 40.9737C33.307 40.8481 33.2827 40.7283 33.2349 40.6123C33.1872 40.4974 33.119 40.3951 33.0304 40.3065C32.9427 40.2178 32.8404 40.1506 32.7245 40.1019C32.6096 40.0542 32.4888 40.0308 32.3641 40.0308H29.5363V38.1449H32.3641C32.4888 38.1449 32.6096 38.1215 32.7245 38.0738C32.8404 38.0251 32.9427 37.9579 33.0304 37.8693C33.119 37.7806 33.1872 37.6783 33.2349 37.5634C33.2827 37.4475 33.307 37.3276 33.307 37.202C33.307 37.0773 33.2827 36.9575 33.2349 36.8416C33.1872 36.7266 33.119 36.6243 33.0304 36.5357C32.9427 36.4471 32.8404 36.3798 32.7245 36.3311C32.6096 36.2834 32.4888 36.26 32.3641 36.26H29.5363V34.3742H32.3641Z" fill="#222222"/>
<path d="M42.6869 25.8906L44.7705 29.2192C44.8368 29.3253 44.9205 29.415 45.0228 29.487C45.1241 29.5601 45.2361 29.6108 45.3579 29.639C45.4806 29.6673 45.6034 29.6711 45.7261 29.6507C45.8498 29.6302 45.9648 29.5864 46.0709 29.5202C46.1771 29.4539 46.2667 29.3701 46.3398 29.2679C46.4129 29.1666 46.4635 29.0545 46.4918 28.9328C46.52 28.81 46.5239 28.6873 46.5035 28.5646C46.483 28.4409 46.4392 28.3259 46.3729 28.2197L44.6945 25.5419C44.8601 25.4591 45.017 25.3636 45.166 25.2545C45.316 25.1454 45.4543 25.0247 45.5829 24.8922C45.7125 24.7597 45.8294 24.6175 45.9336 24.4655C46.0388 24.3136 46.1304 24.1538 46.2083 23.9863C46.2872 23.8187 46.3505 23.6463 46.3992 23.468C46.4489 23.2898 46.482 23.1086 46.5015 22.9255C46.52 22.7414 46.5229 22.5572 46.5103 22.3731C46.4986 22.1881 46.4713 22.0069 46.4284 21.8267C46.3856 21.6474 46.3281 21.4721 46.2551 21.3016C46.183 21.1321 46.0973 20.9695 45.9979 20.8136C45.8985 20.6577 45.7865 20.5116 45.6618 20.3743C45.5381 20.2379 45.4037 20.1122 45.2585 19.9983C45.1134 19.8843 44.9595 19.783 44.7968 19.6943C44.6351 19.6057 44.4666 19.5317 44.2913 19.4713C44.1169 19.4119 43.9386 19.3661 43.7565 19.3359C43.5733 19.3057 43.3902 19.2911 43.2051 19.292H39.9058C39.7811 19.292 39.6604 19.3164 39.5454 19.3641C39.4295 19.4119 39.3282 19.48 39.2395 19.5687C39.1509 19.6564 39.0827 19.7586 39.035 19.8746C38.9872 19.9895 38.9629 20.1103 38.9629 20.235V28.7194C38.9629 28.8441 38.9872 28.9639 39.035 29.0799C39.0827 29.1958 39.1509 29.2971 39.2395 29.3857C39.3282 29.4744 39.4295 29.5426 39.5454 29.5903C39.6604 29.638 39.7811 29.6614 39.9058 29.6614C40.0315 29.6614 40.1513 29.638 40.2672 29.5903C40.3822 29.5426 40.4844 29.4744 40.5731 29.3857C40.6608 29.2971 40.7289 29.1958 40.7767 29.0799C40.8244 28.9639 40.8488 28.8441 40.8488 28.7194V25.8906H42.6869ZM43.2051 21.1779C43.2986 21.1779 43.3902 21.1867 43.4818 21.2052C43.5724 21.2227 43.661 21.25 43.7467 21.2851C43.8325 21.3211 43.9143 21.364 43.9912 21.4156C44.0682 21.4672 44.1393 21.5257 44.2055 21.5919C44.2708 21.6572 44.3292 21.7293 44.3809 21.8062C44.4325 21.8832 44.4763 21.965 44.5114 22.0507C44.5474 22.1364 44.5737 22.2251 44.5923 22.3157C44.6108 22.4072 44.6195 22.4988 44.6195 22.5913C44.6195 22.6849 44.6108 22.7764 44.5923 22.867C44.5737 22.9586 44.5474 23.0472 44.5114 23.1329C44.4763 23.2187 44.4325 23.2995 44.3809 23.3774C44.3292 23.4544 44.2708 23.5255 44.2055 23.5917C44.1393 23.657 44.0682 23.7155 43.9912 23.7671C43.9143 23.8187 43.8325 23.8625 43.7467 23.8976C43.661 23.9337 43.5724 23.96 43.4818 23.9785C43.3902 23.997 43.2986 24.0057 43.2051 24.0057H40.8488V21.1779H43.2051Z" fill="#222222"/>
<path d="M39.9057 32.4893C39.781 32.4893 39.6602 32.5126 39.5452 32.5604C39.4293 32.6081 39.328 32.6763 39.2394 32.7649C39.1507 32.8536 39.0825 32.9559 39.0348 33.0708C38.9871 33.1867 38.9627 33.3065 38.9627 33.4312V37.6832L35.9937 32.9695C35.9401 32.8838 35.8748 32.8078 35.7979 32.7435C35.7199 32.6782 35.6342 32.6266 35.5407 32.5896C35.4472 32.5526 35.3498 32.5302 35.2485 32.5243C35.1472 32.5185 35.0478 32.5282 34.9504 32.5545C34.853 32.5798 34.7614 32.6208 34.6767 32.6753C34.5919 32.7308 34.5179 32.798 34.4555 32.877C34.3922 32.9559 34.3425 33.0435 34.3075 33.138C34.2724 33.2325 34.2529 33.3309 34.25 33.4312V40.9737C34.25 41.0984 34.2734 41.2182 34.3211 41.3341C34.3688 41.4491 34.437 41.5514 34.5257 41.64C34.6143 41.7287 34.7156 41.7959 34.8315 41.8446C34.9475 41.8923 35.0673 41.9157 35.192 41.9157C35.3176 41.9157 35.4374 41.8923 35.5534 41.8446C35.6683 41.7959 35.7706 41.7287 35.8592 41.64C35.9469 41.5514 36.0151 41.4491 36.0628 41.3341C36.1115 41.2182 36.1349 41.0984 36.1349 40.9737V36.7218L39.1049 41.4355C39.1858 41.5806 39.2988 41.6965 39.441 41.7822C39.5842 41.868 39.7391 41.9128 39.9057 41.9157C39.9943 41.9284 40.082 41.9284 40.1696 41.9157C40.271 41.8865 40.3645 41.8417 40.4502 41.7813C40.5359 41.7199 40.6099 41.6468 40.6713 41.5611C40.7327 41.4764 40.7794 41.3829 40.8096 41.2825C40.8398 41.1812 40.8525 41.078 40.8486 40.9737V33.4312C40.8486 33.3065 40.8242 33.1867 40.7765 33.0708C40.7288 32.9559 40.6606 32.8536 40.5729 32.7649C40.4843 32.6763 40.382 32.6081 40.2671 32.5604C40.1511 32.5126 40.0313 32.4893 39.9057 32.4893Z" fill="#222222"/>
<path d="M42.733 32.4893C42.6083 32.4893 42.4885 32.5126 42.3726 32.5604C42.2576 32.6081 42.1553 32.6763 42.0667 32.7649C41.978 32.8536 41.9099 32.9559 41.8621 33.0708C41.8144 33.1867 41.791 33.3065 41.791 33.4312C41.791 33.5569 41.8144 33.6767 41.8621 33.7926C41.9099 33.9076 41.978 34.0098 42.0667 34.0985C42.1553 34.1871 42.2576 34.2543 42.3726 34.303C42.4885 34.3508 42.6083 34.3742 42.733 34.3742H44.6188V40.9737C44.6188 41.0984 44.6432 41.2182 44.6909 41.3341C44.7387 41.4491 44.8069 41.5514 44.8945 41.64C44.9832 41.7287 45.0854 41.7959 45.2004 41.8446C45.3163 41.8923 45.4361 41.9157 45.5618 41.9157C45.6865 41.9157 45.8073 41.8923 45.9222 41.8446C46.0381 41.7959 46.1394 41.7287 46.2281 41.64C46.3167 41.5514 46.3849 41.4491 46.4326 41.3341C46.4804 41.2182 46.5037 41.0984 46.5037 40.9737V34.3742H48.3896C48.5143 34.3742 48.6351 34.3508 48.75 34.303C48.866 34.2543 48.9682 34.1871 49.0559 34.0985C49.1445 34.0098 49.2127 33.9076 49.2605 33.7926C49.3082 33.6767 49.3326 33.5569 49.3326 33.4312C49.3326 33.3065 49.3082 33.1867 49.2605 33.0708C49.2127 32.9559 49.1445 32.8536 49.0559 32.7649C48.9682 32.6763 48.866 32.6081 48.75 32.5604C48.6351 32.5126 48.5143 32.4893 48.3896 32.4893H42.733Z" fill="#222222"/>
</g>
</svg>
