<svg width="58" height="58" viewBox="0 0 58 58" fill="none" xmlns="http://www.w3.org/2000/svg">
<path d="M53.4832 45.1024L44.5255 36.1448L37.6355 33.2982C39.9296 30.0357 41.1587 26.1436 41.1543 22.1553C41.1543 11.4341 32.4321 2.71191 21.7109 2.71191C10.9898 2.71191 2.26758 11.4341 2.26758 22.1553C2.26758 32.8764 10.9898 41.5986 21.7109 41.5986C25.734 41.6032 29.6583 40.3529 32.9372 38.0218L35.7763 44.8933L44.7336 53.8514C45.3081 54.4259 45.9901 54.8816 46.7407 55.1925C47.4913 55.5035 48.2958 55.6635 49.1082 55.6635C49.9206 55.6636 50.7251 55.5036 51.4757 55.1927C52.2264 54.8818 52.9084 54.4261 53.4829 53.8517C54.0574 53.2772 54.5131 52.5952 54.824 51.8446C55.135 51.094 55.295 50.2895 55.295 49.4771C55.2951 48.6646 55.1351 47.8602 54.8242 47.1095C54.5133 46.3589 54.0576 45.6769 53.4832 45.1024ZM5.80273 22.1553C5.80273 13.3837 12.9393 6.24707 21.7109 6.24707C30.4825 6.24707 37.6191 13.3837 37.6191 22.1553C37.6191 30.9269 30.4825 38.0635 21.7109 38.0635C12.9393 38.0635 5.80273 30.9269 5.80273 22.1553ZM50.9832 51.3517C50.4856 51.8482 49.8114 52.127 49.1084 52.127C48.4054 52.127 47.7312 51.8482 47.2336 51.3517L38.7744 42.8925L36.1347 36.5033L42.5242 39.1429L50.9835 47.6021C51.4799 48.0998 51.7587 48.774 51.7586 49.4769C51.7586 50.1799 51.4797 50.8541 50.9832 51.3517Z" fill="#222222"/>
</svg>
