<svg width="58" height="57" viewBox="0 0 58 57" fill="none" xmlns="http://www.w3.org/2000/svg">
<g opacity="0.7">
<path d="M44.4555 7.15215L45.8931 16.2493L54.1654 20.4679L49.9939 28.7166L54.1889 36.9653L45.846 41.1839L44.4083 50.2811L35.2405 48.8434L28.7122 55.3481L22.1604 48.7492L13.0633 50.2575L11.6021 41.0896L3.37695 36.8946L7.572 28.6459L3.40052 20.4679L11.6728 16.2021L13.1104 7.17572L22.2311 8.68405L28.7829 2.06152L35.3112 8.58978L44.4555 7.15215ZM22.891 16.9327C21.9534 16.9327 21.0543 17.3052 20.3913 17.9682C19.7283 18.6311 19.3559 19.5303 19.3559 20.4679C19.3559 21.4055 19.7283 22.3047 20.3913 22.9676C21.0543 23.6306 21.9534 24.0031 22.891 24.0031C23.8286 24.0031 24.7278 23.6306 25.3907 22.9676C26.0537 22.3047 26.4262 21.4055 26.4262 20.4679C26.4262 19.5303 26.0537 18.6311 25.3907 17.9682C24.7278 17.3052 23.8286 16.9327 22.891 16.9327ZM34.6749 33.4301C33.7373 33.4301 32.8381 33.8026 32.1751 34.4656C31.5122 35.1285 31.1397 36.0277 31.1397 36.9653C31.1397 37.9029 31.5122 38.8021 32.1751 39.465C32.8381 40.128 33.7373 40.5005 34.6749 40.5005C35.6124 40.5005 36.5116 40.128 37.1746 39.465C37.8376 38.8021 38.21 37.9029 38.21 36.9653C38.21 36.0277 37.8376 35.1285 37.1746 34.4656C36.5116 33.8026 35.6124 33.4301 34.6749 33.4301ZM20.3221 40.5005L40.5668 20.2558L37.2437 16.9327L16.9991 37.1774L20.3221 40.5005Z" fill="#222222"/>
</g>
</svg>
